<?xml version="1.0" standalone="no"?>
<!DOCTYPE svg PUBLIC "-//W3C//DTD SVG 20010904//EN"
 "http://www.w3.org/TR/2001/REC-SVG-20010904/DTD/svg10.dtd">
<svg version="1.0" xmlns="http://www.w3.org/2000/svg"
 width="500.000000pt" height="500.000000pt" viewBox="0 0 500.000000 500.000000"
 preserveAspectRatio="xMidYMid meet">

<g transform="translate(0.000000,500.000000) scale(0.100000,-0.100000)"
fill="#000000" stroke="none">
<path d="M1940 4654 c-129 -37 -252 -101 -348 -182 -58 -48 -112 -101 -112
-108 0 -3 -17 -26 -39 -52 -38 -47 -92 -142 -131 -235 -27 -62 -60 -243 -60
-327 0 -83 33 -266 58 -322 11 -24 23 -54 27 -68 4 -14 16 -37 26 -52 11 -14
19 -29 19 -34 0 -4 11 -22 25 -40 14 -18 25 -36 25 -40 0 -4 10 -17 23 -29 12
-12 36 -38 53 -56 38 -42 149 -139 159 -139 5 0 23 -11 41 -25 18 -14 37 -25
43 -25 5 0 25 -9 43 -20 19 -11 78 -33 132 -50 93 -28 108 -30 267 -30 166 0
171 1 272 34 56 19 127 48 157 65 30 16 66 36 79 43 80 43 236 203 293 303
110 190 160 437 124 620 -27 142 -41 184 -91 285 -36 74 -47 91 -117 176 -119
145 -272 245 -466 305 -88 27 -105 29 -256 28 -140 0 -172 -3 -246 -25z"/>
<path d="M3825 3528 c-67 -11 -228 -73 -246 -94 -6 -8 -17 -14 -24 -14 -15 0
-175 -152 -175 -167 0 -6 -7 -16 -15 -23 -24 -20 -75 -120 -103 -205 -24 -70
-27 -96 -27 -210 0 -108 4 -143 23 -205 21 -68 31 -89 66 -155 44 -79 151
-197 217 -237 19 -11 36 -24 39 -28 3 -4 19 -13 35 -21 l30 -14 3 -559 2 -559
155 -155 154 -154 261 261 261 260 -157 156 -157 157 156 156 157 157 -125
125 c-69 69 -125 127 -125 130 0 6 59 40 70 40 15 0 130 80 130 90 0 6 6 10
12 10 30 0 156 174 190 263 47 123 50 141 46 305 -4 161 -12 195 -65 295 -8
15 -20 38 -26 50 -27 51 -99 137 -149 178 -29 24 -55 46 -58 49 -8 8 -63 39
-100 55 -19 9 -51 24 -70 33 -69 32 -277 48 -385 30z m258 -343 c44 -35 87
-117 87 -166 0 -51 -42 -127 -90 -165 -40 -32 -48 -34 -119 -34 -80 0 -98 7
-152 60 -30 29 -59 97 -59 140 0 43 29 111 59 140 58 57 71 61 156 58 71 -3
84 -6 118 -33z"/>
<path d="M1790 2495 c-8 -2 -58 -9 -110 -16 -154 -20 -386 -108 -486 -184 -18
-14 -35 -25 -39 -25 -12 0 -170 -140 -205 -181 -19 -23 -42 -49 -50 -58 -8 -9
-38 -50 -65 -91 -107 -159 -169 -327 -205 -555 -6 -33 -10 -171 -10 -307 l0
-248 1355 0 1355 0 0 574 0 575 -100 99 c-55 54 -100 102 -100 107 0 5 -7 16
-15 25 -25 27 -85 131 -85 146 0 16 -68 64 -92 64 -9 0 -41 9 -70 21 -114 45
-197 52 -643 55 -231 1 -427 1 -435 -1z"/>
</g>
</svg>
