<?xml version="1.0" encoding="UTF-8"?>
<svg version="1.1" xmlns="http://www.w3.org/2000/svg" width="348" height="348">
<path d="M0 0 C1.91921823 -0.00678045 3.83842994 -0.01568598 5.75762939 -0.02655029 C10.95603713 -0.04929924 16.15394741 -0.04052538 21.35236359 -0.02465487 C26.7992128 -0.01197311 32.24602016 -0.0237423 37.69287109 -0.03158569 C46.83894477 -0.04067561 55.98481639 -0.02871153 65.13085938 -0.00488281 C75.69652435 0.02232709 86.26170687 0.01351247 96.82736015 -0.01401484 C105.90786804 -0.03672358 114.9882309 -0.03989733 124.06875801 -0.02682149 C129.48820018 -0.01903673 134.90741576 -0.01795869 140.32684326 -0.03450394 C145.42257967 -0.04897501 150.51769561 -0.0388785 155.61336517 -0.01003265 C157.48056764 -0.00343597 159.34782255 -0.0052952 161.21500397 -0.01634598 C178.63600033 -0.10992471 178.63600033 -0.10992471 183.90673256 4.19687176 C188.78922689 9.56128212 188.59810312 14.73792648 188.38916016 21.59838867 C188.35367752 23.64701754 188.31824919 25.69564734 188.28286743 27.74427795 C188.2586031 28.82715654 188.23433876 29.91003513 188.20933914 31.02572823 C188.09118658 36.82923085 188.0619161 42.63354895 188.015625 48.43798828 C187.95068393 55.79376279 187.86165603 63.14678799 187.68164062 70.50073242 C186.60753914 109.90182469 186.60753914 109.90182469 204.16888428 143.9750061 C207.29535178 148.03483262 209.74531563 152.42517854 212.2265625 156.89697266 C214.41358107 161.00875311 214.41358107 161.00875311 217.2265625 164.64697266 C217.63336353 168.30818193 217.726715 170.00884705 215.4140625 172.95947266 C212.22443961 175.42003889 209.68640249 175.77225224 205.78242779 175.77840042 C204.4100439 175.78416214 204.4100439 175.78416214 203.00993508 175.79004025 C201.50003926 175.78874053 201.50003926 175.78874053 199.9596405 175.78741455 C198.8914199 175.79038567 197.82319931 175.7933568 196.72260839 175.79641795 C193.1252044 175.80512433 189.52783362 175.80661484 185.93041992 175.80810547 C183.35846383 175.81273225 180.78650843 175.81775671 178.21455383 175.82315063 C171.2145536 175.83673602 164.21455909 175.84275897 157.21454787 175.84716129 C152.84432272 175.84992331 148.47409977 175.85416059 144.10387611 175.85866547 C132.00570788 175.8708583 119.90754142 175.88115765 107.80936718 175.88454056 C107.03496777 175.88476012 106.26056835 175.88497969 105.46270229 175.88520591 C104.68644298 175.88542419 103.91018366 175.88564247 103.11040133 175.88586736 C101.53738669 175.88631082 99.96437206 175.88675739 98.39135742 175.88720703 C97.61108672 175.88742846 96.83081602 175.88764989 96.02690075 175.88787803 C83.38259249 175.89182638 70.73834185 175.90928145 58.09405585 175.93256655 C45.11460717 175.95627609 32.13518741 175.96874222 19.15571672 175.96990848 C11.86730551 175.97082545 4.57896938 175.9765834 -2.70942116 175.99472809 C-9.56382186 176.01173213 -16.41807777 176.01338467 -23.27249336 176.00458908 C-25.79040661 176.00381647 -28.30832739 176.00819074 -30.82622147 176.01804733 C-34.25950732 176.03070074 -37.6922827 176.02492562 -41.12556458 176.01446533 C-42.62542214 176.02654994 -42.62542214 176.02654994 -44.15557986 176.03887868 C-49.63290756 175.99976202 -54.63265511 175.78775504 -58.7734375 171.64697266 C-59.2557744 166.11809598 -58.38842254 163.22261201 -55.32421875 158.64697266 C-54.58371797 157.51138094 -53.84501689 156.37461411 -53.10791016 155.23681641 C-52.72250061 154.65013184 -52.33709106 154.06344727 -51.94000244 153.45898438 C-49.9910966 150.43177166 -48.1882918 147.32139583 -46.37890625 144.20947266 C-45.64391363 142.95294269 -44.9088875 141.69643232 -44.17382812 140.43994141 C-43.43613666 139.17565423 -42.69850691 137.91133104 -41.9609375 136.64697266 C-40.83330364 134.71699789 -39.70524958 132.78726954 -38.57698059 130.85766602 C-37.56647067 129.12900075 -36.55700453 127.39972545 -35.54760742 125.67041016 C-33.7734375 122.64697266 -33.7734375 122.64697266 -32.18659973 120.59568787 C-30.10050796 116.24283269 -30.35825319 112.21242614 -30.38867188 107.4440918 C-30.3832991 106.41912094 -30.37792633 105.39415009 -30.37239075 104.33811951 C-30.36261772 102.11574754 -30.35966715 99.89333744 -30.36274719 97.67094612 C-30.36722483 94.15279553 -30.35322592 90.63514802 -30.33435059 87.11705017 C-30.2975655 79.64786587 -30.28385755 72.17873421 -30.2734375 64.70947266 C-30.2613608 56.05714219 -30.23983193 47.40505663 -30.19343567 38.75283623 C-30.17985911 35.28841937 -30.18403763 31.82431159 -30.18884277 28.35987854 C-30.17950181 26.2329977 -30.1693329 24.10612028 -30.15820312 21.97924805 C-30.16435135 21.01749664 -30.17049957 20.05574524 -30.17683411 19.06484985 C-30.12172081 13.06534989 -29.65819621 8.8152968 -25.4544754 4.19835949 C-18.51188683 -1.47772527 -8.45279414 -0.05002724 0 0 Z M3.2265625 34.64697266 C-0.04675099 39.68739618 -0.18944751 43.88136985 -0.11401367 49.68164062 C-0.11445175 50.57009171 -0.11488983 51.45854279 -0.11534119 52.37391663 C-0.11325952 55.29589191 -0.08995782 58.21728572 -0.06640625 61.13916016 C-0.06080808 63.17082404 -0.05653903 65.20249199 -0.05354309 67.23416138 C-0.04211172 72.57058983 -0.01265912 77.90677171 0.02056885 83.24310303 C0.05130649 88.69279648 0.06497015 94.14252993 0.08007812 99.59228516 C0.11221217 110.27730652 0.16496627 120.96208047 0.2265625 131.64697266 C9.4665625 131.64697266 18.7065625 131.64697266 28.2265625 131.64697266 C28.31710075 120.32864678 28.39041527 109.01056327 28.43381119 97.69195652 C28.45464399 92.43569495 28.48288285 87.17969501 28.52832031 81.92358398 C28.57193176 76.84665815 28.59573198 71.76998322 28.60607147 66.69288445 C28.61343542 64.76047761 28.62781537 62.82808377 28.64948273 60.89578438 C28.67872034 58.17916823 28.68251006 55.46357552 28.68066406 52.74682617 C28.69504517 51.95631866 28.70942627 51.16581116 28.72424316 50.35134888 C28.68142034 44.48850468 27.22989095 39.70515189 24.2265625 34.64697266 C20.82685911 31.47906723 18.89967651 30.73244745 14.2890625 30.14697266 C9.68435358 30.4116111 6.91732529 31.89699254 3.2265625 34.64697266 Z M68.2265625 34.64697266 C65.35361902 40.17597436 64.80442873 44.53012129 64.88598633 50.70336914 C64.88554825 51.58221268 64.88511017 52.46105621 64.88465881 53.36653137 C64.88673684 56.25060806 64.91002112 59.13409217 64.93359375 62.01806641 C64.93919321 64.02588076 64.94346166 66.03369923 64.94645691 68.04151917 C64.95787806 73.31053097 64.98732177 78.57929231 65.02056885 83.84820557 C65.05132862 89.23096326 65.06497486 94.61376166 65.08007812 99.99658203 C65.11219412 110.54683965 65.16493977 121.09684608 65.2265625 131.64697266 C74.4665625 131.64697266 83.7065625 131.64697266 93.2265625 131.64697266 C93.31700547 119.90295362 93.39036053 108.15916667 93.43381119 96.41487789 C93.45466748 90.96126787 93.4829497 85.5079089 93.52832031 80.05444336 C93.57184739 74.78949586 93.59571434 69.52478955 93.60607147 64.25967598 C93.61345048 62.25304939 93.62786004 60.24643569 93.64948273 58.23991203 C93.67860772 55.4247087 93.68251468 52.61049627 93.68066406 49.79516602 C93.69504517 48.96941574 93.70942627 48.14366547 93.72424316 47.29289246 C93.6839704 41.61443237 92.50658217 38.31312495 89.2265625 33.64697266 C82.80306894 29.12132946 73.97249071 28.84285784 68.2265625 34.64697266 Z M132.9140625 36.14697266 C129.82934568 40.7169235 130.09004197 44.93565011 130.11303711 50.24926758 C130.11289108 51.12752701 130.11274506 52.00578644 130.1125946 52.91065979 C130.11329178 55.81627871 130.12107511 58.72183368 130.12890625 61.62744141 C130.13077112 63.6409756 130.1321947 65.65451024 130.13319397 67.66804504 C130.13701371 72.96989187 130.14683938 78.27171135 130.15789795 83.57354736 C130.16812373 88.98278432 130.1726941 94.3920257 130.17773438 99.80126953 C130.18846211 110.41651786 130.20605454 121.03173871 130.2265625 131.64697266 C139.4665625 131.64697266 148.7065625 131.64697266 158.2265625 131.64697266 C158.33961223 119.77257667 158.43130716 107.89853925 158.48562336 96.02372646 C158.51169503 90.50951042 158.54704932 84.99568227 158.60375977 79.48168945 C158.65816528 74.15837362 158.68800132 68.83543043 158.70094872 63.51185799 C158.71017319 61.48288165 158.72818671 59.45392526 158.75521278 57.42510796 C158.79161638 54.57861452 158.7965031 51.73365239 158.79418945 48.88696289 C158.81216583 48.05186188 158.83014221 47.21676086 158.84866333 46.35635376 C158.79519258 40.25939525 157.22757736 37.25953113 153.2265625 32.64697266 C146.14542424 28.36102055 138.33635661 30.28503308 132.9140625 36.14697266 Z " fill="#000000" transform="translate(94.7734375,129.35302734375)"/>
<path d="M0 0 C4.68139168 1.82431699 8.58494902 4.54594425 12.69970703 7.40112305 C13.61955887 8.02679169 14.53941071 8.65246033 15.48713684 9.29708862 C18.42549144 11.29854881 21.35380768 13.31413963 24.28173828 15.33081055 C27.19382561 17.32297324 30.10791718 19.3121654 33.02278137 21.30026245 C34.83254418 22.5361014 36.64037599 23.77477503 38.44584656 25.01687622 C43.75435192 28.65932163 49.12831507 32.17087112 54.5813446 35.59346008 C57.06309533 37.18582827 59.47804482 38.84822133 61.88330078 40.5534668 C68.29639779 45.09175199 74.88788908 49.35522992 81.46923828 53.64331055 C83.95674476 55.26620166 86.44362517 56.89004907 88.93017578 58.5144043 C89.53021423 58.90622894 90.13025269 59.29805359 90.74847412 59.70175171 C96.55580163 63.49848651 102.32952393 67.34466542 108.09423828 71.20581055 C107.76423828 71.86581055 107.43423828 72.52581055 107.09423828 73.20581055 C36.14423828 73.20581055 -34.80576172 73.20581055 -107.90576172 73.20581055 C-107.90576172 72.21581055 -107.90576172 71.22581055 -107.90576172 70.20581055 C-106.56939697 68.9392395 -106.56939697 68.9392395 -104.65673828 67.66333008 C-103.9362178 67.17547531 -103.21569733 66.68762054 -102.4733429 66.1849823 C-101.67244736 65.65818375 -100.87155182 65.13138519 -100.04638672 64.58862305 C-99.21112961 64.02770462 -98.3758725 63.46678619 -97.51530457 62.88887024 C-94.73543194 61.02602931 -91.94579631 59.17838991 -89.15576172 57.33081055 C-87.21653008 56.03608397 -85.27781621 54.74058155 -83.33959961 53.44433594 C-77.20583021 49.34840375 -71.05743368 45.2747901 -64.90576172 41.20581055 C-63.89946716 40.53986877 -62.89317261 39.873927 -61.85638428 39.18780518 C-53.23067705 33.48080529 -44.60024298 27.78101708 -35.95556641 22.1027832 C-34.66113113 21.25209259 -34.66113113 21.25209259 -33.34054565 20.38421631 C-31.65202704 19.2761982 -29.96205811 18.1703866 -28.27053833 17.06695557 C-24.08229616 14.32838806 -19.93786966 11.54497349 -15.84375 8.66723633 C-15.02922867 8.10198746 -14.21470734 7.53673859 -13.37550354 6.95436096 C-11.83766176 5.88407325 -10.30920589 4.80012052 -8.79234314 3.70030212 C-5.74536453 1.59317134 -3.73830294 0.26477814 0 0 Z " fill="#010101" transform="translate(174.90576171875,43.794189453125)"/>
<path d="M0 0 C0.66 0.33 1.32 0.66 2 1 C1.01 2.32 0.02 3.64 -1 5 C0.32 5.33 1.64 5.66 3 6 C0.69 6 -1.62 6 -4 6 C-4 5.01 -4 4.02 -4 3 C-2 1.3125 -2 1.3125 0 0 Z " fill="#0E0C0F" transform="translate(71,111)"/>
</svg>
