<?xml version="1.0" standalone="no"?>
<!DOCTYPE svg PUBLIC "-//W3C//DTD SVG 20010904//EN"
 "http://www.w3.org/TR/2001/REC-SVG-20010904/DTD/svg10.dtd">
<svg version="1.0" xmlns="http://www.w3.org/2000/svg"
 width="225.000000pt" height="225.000000pt" viewBox="0 0 225.000000 225.000000"
 preserveAspectRatio="xMidYMid meet">

<g transform="translate(0.000000,225.000000) scale(0.100000,-0.100000)"
fill="#000000" stroke="none">
<path d="M1021 1939 c-333 -44 -607 -288 -692 -614 -29 -113 -29 -290 0 -400
79 -297 299 -517 596 -596 112 -29 288 -29 400 0 297 79 517 299 596 596 29
112 29 288 0 400 -79 295 -303 521 -591 594 -93 23 -224 32 -309 20z m247 -85
c156 -32 269 -92 381 -204 89 -89 153 -195 190 -314 21 -69 25 -101 25 -211 0
-110 -4 -142 -25 -211 -33 -106 -96 -216 -171 -295 l-59 -64 -17 23 c-95 129
-168 190 -280 232 -110 42 -264 42 -374 0 -112 -42 -177 -96 -280 -232 l-18
-23 -48 51 c-186 197 -254 469 -182 724 105 370 482 601 858 524z"/>
<path d="M1069 1520 c-63 -11 -116 -40 -165 -92 -74 -77 -101 -165 -82 -268
13 -71 37 -116 90 -167 121 -117 305 -117 426 0 54 52 77 96 91 170 39 210
-145 392 -360 357z"/>
</g>
</svg>
